<?xml version="1.0" encoding="utf-8"?>
<!DOCTYPE svg PUBLIC "-//W3C//DTD SVG 1.1//EN" "http://www.w3.org/Graphics/SVG/1.1/DTD/svg11.dtd">
<svg version="1.1" id="Layer_1" xmlns="http://www.w3.org/2000/svg" xmlns:xlink="http://www.w3.org/1999/xlink" x="0px" y="0px"
	 viewBox="0 0 64 64" enable-background="new 0 0 64 64" xml:space="preserve">
<path fill="#FFFFFF" d="M30.9,59H5.3c0,0,1.4-16.3,13.5-23.6c-0.3,1.4-0.4,2.8-0.4,4.2C18.4,48.2,23.5,55.7,30.9,59z"/>
<path fill="#FFFFFF" d="M21.9,28c-2.3-2.5-3.8-5.9-3.8-9.7c0-7.8,6.3-14.2,14.2-14.2c7.8,0,14.2,6.4,14.2,14.2c0,0.4,0,0.8-0.1,1.2
	c-2.1-0.7-4.4-1.1-6.8-1.1C32.2,18.4,25.7,22.2,21.9,28z"/>
<path fill="#FFFFFF" d="M36.3,49.9l12.4-12.4c0.6,0.5,1.2,1.1,1.8,1.7c0,0.1,0,0.3,0,0.4c0,6-4.8,10.8-10.8,10.8
	C38.5,50.4,37.4,50.2,36.3,49.9z"/>
<path fill="#FFFFFF" d="M41.5,29c-1.7,1.5-3.7,2.5-5.9,3.1c1.1,0.1,2.2,0.3,3.2,0.5l-9.6,9.6c-0.2-0.8-0.3-1.7-0.3-2.6
	c0-5.9,4.8-10.8,10.8-10.8C40.3,28.8,40.9,28.9,41.5,29z"/>
<path fill="#FFFFFF" d="M58.5,59H48.3c3.6-1.6,6.6-4.2,8.8-7.4C58.3,55.8,58.5,59,58.5,59z"/>
<g>
	<path fill="#FFFFFF" d="M39.6,20.9c-10.3,0-18.8,8.4-18.8,18.8c0,10.3,8.4,18.8,18.8,18.8c10.3,0,18.8-8.4,18.8-18.8
		C58.4,29.3,50,20.9,39.6,20.9z M39.6,26.3c2.6,0,4.9,0.7,7,2L28.3,46.6c-1.3-2-2-4.4-2-7C26.3,32.3,32.3,26.3,39.6,26.3z
		 M39.6,52.9c-2.8,0-5.4-0.9-7.5-2.4l18.5-18.5c1.5,2.1,2.4,4.7,2.4,7.5C52.9,46.9,47,52.9,39.6,52.9z"/>
</g>
</svg>
