<?xml version="1.0" encoding="UTF-8" standalone="no"?>
<svg
   xmlns="http://www.w3.org/2000/svg"
   version="1.1" id="Layer_1"
   x="0px" y="0px" viewBox="0 0 48.1 54.6"
   enable-background="new 0 0 48.1 54.6"
   xml:space="preserve">
 <path
     d="M 18.375 4.34375 L 17.9375 4.96875 L 14.875 9.1875 L 7.96875 9.1875 L 7.9375 13.1875 L 39.78125 13.25 L 39.78125 9.25 L 32.90625 9.25 L 31.03125 5.3125 L 30.625 4.46875 L 29.6875 4.46875 L 19.15625 4.34375 L 18.375 4.34375 z M 19.875 7.34375 L 28.71875 7.46875 L 29.5625 9.21875 L 18.53125 9.21875 L 19.875 7.34375 z "
     fill="white" /><path
     d="M 8.0625 14.78125 L 8.3125 16.5 L 39.03125 16.5 L 39.28125 14.78125 L 35.375 14.78125 L 12 14.78125 L 8.0625 14.78125 z M 8.6875 19 L 12.5 45.03125 L 12.9375 47.9375 L 15.875 47.9375 L 31.65625 47.9375 L 34.59375 47.9375 L 35.03125 45.03125 L 38.6875 19 L 8.6875 19 z M 15.90625 22.46875 L 18.1875 43.59375 L 15.6875 43.84375 L 13.4375 22.71875 L 15.90625 22.46875 z M 31.5625 22.46875 L 34.03125 22.71875 L 31.75 43.84375 L 29.28125 43.59375 L 31.5625 22.46875 z M 22.40625 24.875 L 24.90625 24.875 L 24.90625 43.71875 L 22.40625 43.71875 L 22.40625 24.875 z "
     fill="white" /></svg>
