<?xml version="1.0" encoding="utf-8"?>
<!DOCTYPE svg PUBLIC "-//W3C//DTD SVG 1.1//EN" "http://www.w3.org/Graphics/SVG/1.1/DTD/svg11.dtd">
<svg version="1.1"
	 id="svg2" xmlns:cc="http://creativecommons.org/ns#" xmlns="http://www.w3.org/2000/svg" x="0px" y="0px" viewBox="0 0 29.8 32.6"
	 enable-background="new 0 0 29.8 32.6" xml:space="preserve">
<path fill="#FFFFFF" d="M29.8,13.8l-1.5,0v15.7c0,1.7-1.4,3-3,3H19l0-8.2h-7.7l0,8.2H4.5c-1.7,0-3-1.4-3-3V13.9l-1.5,0l2-2.1l0,0
	l0.6-0.6l3.7-3.9c6.5-6.6,6.7-6.7,7.1-6.9C14.2,0,15.2-0.1,16,0.3c0.6,0.3,0.6,0.3,8.4,7.9l2.9,3l0.3,0.3l0,0L29.8,13.8z"/>
</svg>
