<?xml version="1.0" encoding="utf-8"?>
<!DOCTYPE svg PUBLIC "-//W3C//DTD SVG 1.1//EN" "http://www.w3.org/Graphics/SVG/1.1/DTD/svg11.dtd">
<svg version="1.1" id="svg4195" xmlns="http://www.w3.org/2000/svg" x="0px" y="0px" viewBox="0 0 64 64"
	 enable-background="new 0 0 64 64" xml:space="preserve">
<path fill="#FF0000" d="M61.7,59.9H3.2c-0.7,0-1.4-0.4-1.7-1c-0.4-0.6-0.4-1.4,0-2L30.7,5.9c0.4-0.6,1-1,1.7-1c0.7,0,1.4,0.4,1.7,1
	l29.2,50.9c0.4,0.6,0.4,1.4,0,2C63.1,59.5,62.4,59.9,61.7,59.9z M6.7,55.9h51.6L32.4,11L6.7,55.9z"/>
<path fill="#FF0000" d="M32.7,52.9h-0.4c-1.4,0-2.5-1.1-2.5-2.5v-1.2c0-1.4,1.1-2.5,2.5-2.5h0.4c1.4,0,2.5,1.1,2.5,2.5v1.2
	C35.2,51.7,34.1,52.9,32.7,52.9z"/>
<path fill="#FF0000" d="M32.5,43.3h-0.6c-1.5,0-2.7-1.1-2.7-2.6l-0.8-17.8c0-0.7,0.2-1.5,0.8-2c0.5-0.5,1.2-0.8,2-0.8h2.2
	c0.7,0,1.5,0.3,2,0.8c0.5,0.5,0.8,1.3,0.8,2l-0.8,17.8C35.2,42.1,34,43.3,32.5,43.3z"/>
</svg>
